<svg width="1289" height="109" viewBox="0 0 1289 109" fill="none" xmlns="http://www.w3.org/2000/svg">
<path d="M0.872308 75.864C0.872308 64.216 3.39231 53.856 8.43231 44.784C13.4723 35.6 20.4723 28.488 29.4323 23.448C38.5043 18.296 48.7523 15.72 60.1763 15.72C74.1763 15.72 86.1603 19.416 96.1283 26.808C106.096 34.2 112.76 44.28 116.12 57.048H84.5363C82.1843 52.12 78.8243 48.368 74.4563 45.792C70.2003 43.216 65.3283 41.928 59.8403 41.928C50.9923 41.928 43.8243 45.008 38.3363 51.168C32.8483 57.328 30.1043 65.56 30.1043 75.864C30.1043 86.168 32.8483 94.4 38.3363 100.56C43.8243 106.72 50.9923 109.8 59.8403 109.8C65.3283 109.8 70.2003 108.512 74.4563 105.936C78.8243 103.36 82.1843 99.608 84.5363 94.68H116.12C112.76 107.448 106.096 117.528 96.1283 124.92C86.1603 132.2 74.1763 135.84 60.1763 135.84C48.7523 135.84 38.5043 133.32 29.4323 128.28C20.4723 123.128 13.4723 116.016 8.43231 106.944C3.39231 97.872 0.872308 87.512 0.872308 75.864ZM173.025 136.344C163.841 136.344 155.553 134.384 148.161 130.464C140.881 126.544 135.113 120.944 130.857 113.664C126.713 106.384 124.641 97.872 124.641 88.128C124.641 78.496 126.769 70.04 131.025 62.76C135.281 55.368 141.105 49.712 148.497 45.792C155.889 41.872 164.177 39.912 173.361 39.912C182.545 39.912 190.833 41.872 198.225 45.792C205.617 49.712 211.441 55.368 215.697 62.76C219.953 70.04 222.081 78.496 222.081 88.128C222.081 97.76 219.897 106.272 215.529 113.664C211.273 120.944 205.393 126.544 197.889 130.464C190.497 134.384 182.209 136.344 173.025 136.344ZM173.025 111.48C178.513 111.48 183.161 109.464 186.969 105.432C190.889 101.4 192.849 95.632 192.849 88.128C192.849 80.624 190.945 74.856 187.137 70.824C183.441 66.792 178.849 64.776 173.361 64.776C167.761 64.776 163.113 66.792 159.417 70.824C155.721 74.744 153.873 80.512 153.873 88.128C153.873 95.632 155.665 101.4 159.249 105.432C162.945 109.464 167.537 111.48 173.025 111.48ZM353.578 40.248C365.226 40.248 374.466 43.776 381.298 50.832C388.242 57.888 391.714 67.688 391.714 80.232V135H363.154V84.096C363.154 78.048 361.53 73.4 358.282 70.152C355.146 66.792 350.778 65.112 345.178 65.112C339.578 65.112 335.154 66.792 331.906 70.152C328.77 73.4 327.202 78.048 327.202 84.096V135H298.642V84.096C298.642 78.048 297.018 73.4 293.77 70.152C290.634 66.792 286.266 65.112 280.666 65.112C275.066 65.112 270.642 66.792 267.394 70.152C264.258 73.4 262.69 78.048 262.69 84.096V135H233.962V41.256H262.69V53.016C265.602 49.096 269.41 46.016 274.114 43.776C278.818 41.424 284.138 40.248 290.074 40.248C297.13 40.248 303.402 41.76 308.89 44.784C314.49 47.808 318.858 52.12 321.994 57.72C325.242 52.568 329.666 48.368 335.266 45.12C340.866 41.872 346.97 40.248 353.578 40.248ZM422.894 31.512C417.854 31.512 413.71 30.056 410.462 27.144C407.326 24.12 405.758 20.424 405.758 16.056C405.758 11.576 407.326 7.87999 410.462 4.96799C413.71 1.94399 417.854 0.43199 422.894 0.43199C427.822 0.43199 431.854 1.94399 434.99 4.96799C438.238 7.87999 439.862 11.576 439.862 16.056C439.862 20.424 438.238 24.12 434.99 27.144C431.854 30.056 427.822 31.512 422.894 31.512ZM437.174 41.256V135H408.446V41.256H437.174ZM511.752 40.248C522.728 40.248 531.464 43.832 537.96 51C544.568 58.056 547.872 67.8 547.872 80.232V135H519.312V84.096C519.312 77.824 517.688 72.952 514.44 69.48C511.192 66.008 506.824 64.272 501.336 64.272C495.848 64.272 491.48 66.008 488.232 69.48C484.984 72.952 483.36 77.824 483.36 84.096V135H454.632V41.256H483.36V53.688C486.272 49.544 490.192 46.296 495.12 43.944C500.048 41.48 505.592 40.248 511.752 40.248ZM600.092 39.912C606.7 39.912 612.468 41.256 617.396 43.944C622.436 46.632 626.3 50.16 628.988 54.528V41.256H657.716V134.832C657.716 143.456 655.98 151.24 652.508 158.184C649.148 165.24 643.94 170.84 636.884 174.984C629.94 179.128 621.26 181.2 610.844 181.2C596.956 181.2 585.7 177.896 577.076 171.288C568.452 164.792 563.524 155.944 562.292 144.744H590.684C591.58 148.328 593.708 151.128 597.068 153.144C600.428 155.272 604.572 156.336 609.5 156.336C615.436 156.336 620.14 154.6 623.612 151.128C627.196 147.768 628.988 142.336 628.988 134.832V121.56C626.188 125.928 622.324 129.512 617.396 132.312C612.468 135 606.7 136.344 600.092 136.344C592.364 136.344 585.364 134.384 579.092 130.464C572.82 126.432 567.836 120.776 564.14 113.496C560.556 106.104 558.764 97.592 558.764 87.96C558.764 78.328 560.556 69.872 564.14 62.592C567.836 55.312 572.82 49.712 579.092 45.792C585.364 41.872 592.364 39.912 600.092 39.912ZM628.988 88.128C628.988 80.96 626.972 75.304 622.94 71.16C619.02 67.016 614.204 64.944 608.492 64.944C602.78 64.944 597.908 67.016 593.876 71.16C589.956 75.192 587.996 80.792 587.996 87.96C587.996 95.128 589.956 100.84 593.876 105.096C597.908 109.24 602.78 111.312 608.492 111.312C614.204 111.312 619.02 109.24 622.94 105.096C626.972 100.952 628.988 95.296 628.988 88.128ZM750.053 136.176C741.429 136.176 733.701 134.776 726.869 131.976C720.037 129.176 714.549 125.032 710.405 119.544C706.373 114.056 704.245 107.448 704.021 99.72H734.597C735.045 104.088 736.557 107.448 739.133 109.8C741.709 112.04 745.069 113.16 749.213 113.16C753.469 113.16 756.829 112.208 759.293 110.304C761.757 108.288 762.989 105.544 762.989 102.072C762.989 99.16 761.981 96.752 759.965 94.848C758.061 92.944 755.653 91.376 752.741 90.144C749.941 88.912 745.909 87.512 740.645 85.944C733.029 83.592 726.813 81.24 721.997 78.888C717.181 76.536 713.037 73.064 709.565 68.472C706.093 63.88 704.357 57.888 704.357 50.496C704.357 39.52 708.333 30.952 716.285 24.792C724.237 18.52 734.597 15.384 747.365 15.384C760.357 15.384 770.829 18.52 778.781 24.792C786.733 30.952 790.989 39.576 791.549 50.664H760.469C760.245 46.856 758.845 43.888 756.269 41.76C753.693 39.52 750.389 38.4 746.357 38.4C742.885 38.4 740.085 39.352 737.957 41.256C735.829 43.048 734.765 45.68 734.765 49.152C734.765 52.96 736.557 55.928 740.141 58.056C743.725 60.184 749.325 62.48 756.941 64.944C764.557 67.52 770.717 69.984 775.421 72.336C780.237 74.688 784.381 78.104 787.853 82.584C791.325 87.064 793.061 92.832 793.061 99.888C793.061 106.608 791.325 112.712 787.853 118.2C784.493 123.688 779.565 128.056 773.069 131.304C766.573 134.552 758.901 136.176 750.053 136.176ZM850.052 136.344C840.868 136.344 832.58 134.384 825.188 130.464C817.908 126.544 812.14 120.944 807.884 113.664C803.74 106.384 801.668 97.872 801.668 88.128C801.668 78.496 803.796 70.04 808.052 62.76C812.308 55.368 818.132 49.712 825.524 45.792C832.916 41.872 841.204 39.912 850.388 39.912C859.572 39.912 867.86 41.872 875.252 45.792C882.644 49.712 888.468 55.368 892.724 62.76C896.98 70.04 899.108 78.496 899.108 88.128C899.108 97.76 896.924 106.272 892.556 113.664C888.3 120.944 882.42 126.544 874.916 130.464C867.524 134.384 859.236 136.344 850.052 136.344ZM850.052 111.48C855.54 111.48 860.188 109.464 863.996 105.432C867.916 101.4 869.876 95.632 869.876 88.128C869.876 80.624 867.972 74.856 864.164 70.824C860.468 66.792 855.876 64.776 850.388 64.776C844.788 64.776 840.14 66.792 836.444 70.824C832.748 74.744 830.9 80.512 830.9 88.128C830.9 95.632 832.692 101.4 836.276 105.432C839.972 109.464 844.564 111.48 850.052 111.48ZM953.661 136.344C944.477 136.344 936.189 134.384 928.797 130.464C921.517 126.544 915.749 120.944 911.493 113.664C907.349 106.384 905.277 97.872 905.277 88.128C905.277 78.496 907.405 70.04 911.661 62.76C915.917 55.368 921.741 49.712 929.133 45.792C936.525 41.872 944.813 39.912 953.997 39.912C963.181 39.912 971.469 41.872 978.861 45.792C986.253 49.712 992.077 55.368 996.333 62.76C1000.59 70.04 1002.72 78.496 1002.72 88.128C1002.72 97.76 1000.53 106.272 996.165 113.664C991.909 120.944 986.029 126.544 978.525 130.464C971.133 134.384 962.845 136.344 953.661 136.344ZM953.661 111.48C959.149 111.48 963.797 109.464 967.605 105.432C971.525 101.4 973.485 95.632 973.485 88.128C973.485 80.624 971.581 74.856 967.773 70.824C964.077 66.792 959.485 64.776 953.997 64.776C948.397 64.776 943.749 66.792 940.053 70.824C936.357 74.744 934.509 80.512 934.509 88.128C934.509 95.632 936.301 101.4 939.885 105.432C943.581 109.464 948.173 111.48 953.661 111.48ZM1071.72 40.248C1082.69 40.248 1091.43 43.832 1097.93 51C1104.53 58.056 1107.84 67.8 1107.84 80.232V135H1079.28V84.096C1079.28 77.824 1077.65 72.952 1074.41 69.48C1071.16 66.008 1066.79 64.272 1061.3 64.272C1055.81 64.272 1051.45 66.008 1048.2 69.48C1044.95 72.952 1043.33 77.824 1043.33 84.096V135H1014.6V41.256H1043.33V53.688C1046.24 49.544 1050.16 46.296 1055.09 43.944C1060.01 41.48 1065.56 40.248 1071.72 40.248ZM1162.24 12.864L1158.88 93.336H1134.52L1131.16 12.864H1162.24ZM1147.12 136.344C1142.08 136.344 1137.94 134.888 1134.69 131.976C1131.55 128.952 1129.98 125.256 1129.98 120.888C1129.98 116.408 1131.55 112.656 1134.69 109.632C1137.94 106.608 1142.08 105.096 1147.12 105.096C1152.05 105.096 1156.08 106.608 1159.22 109.632C1162.46 112.656 1164.09 116.408 1164.09 120.888C1164.09 125.256 1162.46 128.952 1159.22 131.976C1156.08 134.888 1152.05 136.344 1147.12 136.344ZM1224.67 12.864L1221.31 93.336H1196.95L1193.59 12.864H1224.67ZM1209.55 136.344C1204.51 136.344 1200.37 134.888 1197.12 131.976C1193.98 128.952 1192.41 125.256 1192.41 120.888C1192.41 116.408 1193.98 112.656 1197.12 109.632C1200.37 106.608 1204.51 105.096 1209.55 105.096C1214.48 105.096 1218.51 106.608 1221.65 109.632C1224.89 112.656 1226.52 116.408 1226.52 120.888C1226.52 125.256 1224.89 128.952 1221.65 131.976C1218.51 134.888 1214.48 136.344 1209.55 136.344ZM1287.1 12.864L1283.74 93.336H1259.38L1256.02 12.864H1287.1ZM1271.98 136.344C1266.94 136.344 1262.79 134.888 1259.55 131.976C1256.41 128.952 1254.84 125.256 1254.84 120.888C1254.84 116.408 1256.41 112.656 1259.55 109.632C1262.79 106.608 1266.94 105.096 1271.98 105.096C1276.91 105.096 1280.94 106.608 1284.07 109.632C1287.32 112.656 1288.95 116.408 1288.95 120.888C1288.95 125.256 1287.32 128.952 1284.07 131.976C1280.94 134.888 1276.91 136.344 1271.98 136.344Z" fill="#FCD9C6"/>
</svg>
