<svg width="1291" height="128" viewBox="0 0 1291 128" fill="none" xmlns="http://www.w3.org/2000/svg">
<mask id="path-1-outside-1_527_112" maskUnits="userSpaceOnUse" x="0" y="-56" width="1291" height="184" fill="black">
<rect fill="white" y="-56" width="1291" height="184"/>
<path d="M1.87231 20.864C1.87231 9.216 4.39231 -1.144 9.43231 -10.216C14.4723 -19.4 21.4723 -26.512 30.4323 -31.552C39.5043 -36.704 49.7523 -39.28 61.1763 -39.28C75.1763 -39.28 87.1603 -35.584 97.1283 -28.192C107.096 -20.8 113.76 -10.72 117.12 2.048H85.5363C83.1843 -2.88 79.8243 -6.632 75.4563 -9.208C71.2003 -11.784 66.3283 -13.072 60.8403 -13.072C51.9923 -13.072 44.8243 -9.992 39.3363 -3.832C33.8483 2.328 31.1043 10.56 31.1043 20.864C31.1043 31.168 33.8483 39.4 39.3363 45.56C44.8243 51.72 51.9923 54.8 60.8403 54.8C66.3283 54.8 71.2003 53.512 75.4563 50.936C79.8243 48.36 83.1843 44.608 85.5363 39.68H117.12C113.76 52.448 107.096 62.528 97.1283 69.92C87.1603 77.2 75.1763 80.84 61.1763 80.84C49.7523 80.84 39.5043 78.32 30.4323 73.28C21.4723 68.128 14.4723 61.016 9.43231 51.944C4.39231 42.872 1.87231 32.512 1.87231 20.864ZM174.025 81.344C164.841 81.344 156.553 79.384 149.161 75.464C141.881 71.544 136.113 65.944 131.857 58.664C127.713 51.384 125.641 42.872 125.641 33.128C125.641 23.496 127.769 15.04 132.025 7.76C136.281 0.367997 142.105 -5.288 149.497 -9.208C156.889 -13.128 165.177 -15.088 174.361 -15.088C183.545 -15.088 191.833 -13.128 199.225 -9.208C206.617 -5.288 212.441 0.367997 216.697 7.76C220.953 15.04 223.081 23.496 223.081 33.128C223.081 42.76 220.897 51.272 216.529 58.664C212.273 65.944 206.393 71.544 198.889 75.464C191.497 79.384 183.209 81.344 174.025 81.344ZM174.025 56.48C179.513 56.48 184.161 54.464 187.969 50.432C191.889 46.4 193.849 40.632 193.849 33.128C193.849 25.624 191.945 19.856 188.137 15.824C184.441 11.792 179.849 9.776 174.361 9.776C168.761 9.776 164.113 11.792 160.417 15.824C156.721 19.744 154.873 25.512 154.873 33.128C154.873 40.632 156.665 46.4 160.249 50.432C163.945 54.464 168.537 56.48 174.025 56.48ZM354.578 -14.752C366.226 -14.752 375.466 -11.224 382.298 -4.16801C389.242 2.88799 392.714 12.688 392.714 25.232V80H364.154V29.096C364.154 23.048 362.53 18.4 359.282 15.152C356.146 11.792 351.778 10.112 346.178 10.112C340.578 10.112 336.154 11.792 332.906 15.152C329.77 18.4 328.202 23.048 328.202 29.096V80H299.642V29.096C299.642 23.048 298.018 18.4 294.77 15.152C291.634 11.792 287.266 10.112 281.666 10.112C276.066 10.112 271.642 11.792 268.394 15.152C265.258 18.4 263.69 23.048 263.69 29.096V80H234.962V-13.744H263.69V-1.98401C266.602 -5.904 270.41 -8.984 275.114 -11.224C279.818 -13.576 285.138 -14.752 291.074 -14.752C298.13 -14.752 304.402 -13.24 309.89 -10.216C315.49 -7.19201 319.858 -2.88001 322.994 2.72C326.242 -2.43201 330.666 -6.63201 336.266 -9.88C341.866 -13.128 347.97 -14.752 354.578 -14.752ZM423.894 -23.488C418.854 -23.488 414.71 -24.944 411.462 -27.856C408.326 -30.88 406.758 -34.576 406.758 -38.944C406.758 -43.424 408.326 -47.12 411.462 -50.032C414.71 -53.056 418.854 -54.568 423.894 -54.568C428.822 -54.568 432.854 -53.056 435.99 -50.032C439.238 -47.12 440.862 -43.424 440.862 -38.944C440.862 -34.576 439.238 -30.88 435.99 -27.856C432.854 -24.944 428.822 -23.488 423.894 -23.488ZM438.174 -13.744V80H409.446V-13.744H438.174ZM512.752 -14.752C523.728 -14.752 532.464 -11.168 538.96 -4C545.568 3.056 548.872 12.8 548.872 25.232V80H520.312V29.096C520.312 22.824 518.688 17.952 515.44 14.48C512.192 11.008 507.824 9.27199 502.336 9.27199C496.848 9.27199 492.48 11.008 489.232 14.48C485.984 17.952 484.36 22.824 484.36 29.096V80H455.632V-13.744H484.36V-1.312C487.272 -5.456 491.192 -8.70401 496.12 -11.056C501.048 -13.52 506.592 -14.752 512.752 -14.752ZM601.092 -15.088C607.7 -15.088 613.468 -13.744 618.396 -11.056C623.436 -8.368 627.3 -4.84 629.988 -0.472005V-13.744H658.716V79.832C658.716 88.456 656.98 96.24 653.508 103.184C650.148 110.24 644.94 115.84 637.884 119.984C630.94 124.128 622.26 126.2 611.844 126.2C597.956 126.2 586.7 122.896 578.076 116.288C569.452 109.792 564.524 100.944 563.292 89.744H591.684C592.58 93.328 594.708 96.128 598.068 98.144C601.428 100.272 605.572 101.336 610.5 101.336C616.436 101.336 621.14 99.6 624.612 96.128C628.196 92.768 629.988 87.336 629.988 79.832V66.56C627.188 70.928 623.324 74.512 618.396 77.312C613.468 80 607.7 81.344 601.092 81.344C593.364 81.344 586.364 79.384 580.092 75.464C573.82 71.432 568.836 65.776 565.14 58.496C561.556 51.104 559.764 42.592 559.764 32.96C559.764 23.328 561.556 14.872 565.14 7.592C568.836 0.311996 573.82 -5.288 580.092 -9.208C586.364 -13.128 593.364 -15.088 601.092 -15.088ZM629.988 33.128C629.988 25.96 627.972 20.304 623.94 16.16C620.02 12.016 615.204 9.944 609.492 9.944C603.78 9.944 598.908 12.016 594.876 16.16C590.956 20.192 588.996 25.792 588.996 32.96C588.996 40.128 590.956 45.84 594.876 50.096C598.908 54.24 603.78 56.312 609.492 56.312C615.204 56.312 620.02 54.24 623.94 50.096C627.972 45.952 629.988 40.296 629.988 33.128ZM751.053 81.176C742.429 81.176 734.701 79.776 727.869 76.976C721.037 74.176 715.549 70.032 711.405 64.544C707.373 59.056 705.245 52.448 705.021 44.72H735.597C736.045 49.088 737.557 52.448 740.133 54.8C742.709 57.04 746.069 58.16 750.213 58.16C754.469 58.16 757.829 57.208 760.293 55.304C762.757 53.288 763.989 50.544 763.989 47.072C763.989 44.16 762.981 41.752 760.965 39.848C759.061 37.944 756.653 36.376 753.741 35.144C750.941 33.912 746.909 32.512 741.645 30.944C734.029 28.592 727.813 26.24 722.997 23.888C718.181 21.536 714.037 18.064 710.565 13.472C707.093 8.88 705.357 2.888 705.357 -4.504C705.357 -15.48 709.333 -24.048 717.285 -30.208C725.237 -36.48 735.597 -39.616 748.365 -39.616C761.357 -39.616 771.829 -36.48 779.781 -30.208C787.733 -24.048 791.989 -15.424 792.549 -4.33601H761.469C761.245 -8.144 759.845 -11.112 757.269 -13.24C754.693 -15.48 751.389 -16.6 747.357 -16.6C743.885 -16.6 741.085 -15.648 738.957 -13.744C736.829 -11.952 735.765 -9.32001 735.765 -5.84801C735.765 -2.04001 737.557 0.927995 741.141 3.05599C744.725 5.184 750.325 7.48 757.941 9.944C765.557 12.52 771.717 14.984 776.421 17.336C781.237 19.688 785.381 23.104 788.853 27.584C792.325 32.064 794.061 37.832 794.061 44.888C794.061 51.608 792.325 57.712 788.853 63.2C785.493 68.688 780.565 73.056 774.069 76.304C767.573 79.552 759.901 81.176 751.053 81.176ZM851.052 81.344C841.868 81.344 833.58 79.384 826.188 75.464C818.908 71.544 813.14 65.944 808.884 58.664C804.74 51.384 802.668 42.872 802.668 33.128C802.668 23.496 804.796 15.04 809.052 7.76C813.308 0.367997 819.132 -5.288 826.524 -9.208C833.916 -13.128 842.204 -15.088 851.388 -15.088C860.572 -15.088 868.86 -13.128 876.252 -9.208C883.644 -5.288 889.468 0.367997 893.724 7.76C897.98 15.04 900.108 23.496 900.108 33.128C900.108 42.76 897.924 51.272 893.556 58.664C889.3 65.944 883.42 71.544 875.916 75.464C868.524 79.384 860.236 81.344 851.052 81.344ZM851.052 56.48C856.54 56.48 861.188 54.464 864.996 50.432C868.916 46.4 870.876 40.632 870.876 33.128C870.876 25.624 868.972 19.856 865.164 15.824C861.468 11.792 856.876 9.776 851.388 9.776C845.788 9.776 841.14 11.792 837.444 15.824C833.748 19.744 831.9 25.512 831.9 33.128C831.9 40.632 833.692 46.4 837.276 50.432C840.972 54.464 845.564 56.48 851.052 56.48ZM954.661 81.344C945.477 81.344 937.189 79.384 929.797 75.464C922.517 71.544 916.749 65.944 912.493 58.664C908.349 51.384 906.277 42.872 906.277 33.128C906.277 23.496 908.405 15.04 912.661 7.76C916.917 0.367997 922.741 -5.288 930.133 -9.208C937.525 -13.128 945.813 -15.088 954.997 -15.088C964.181 -15.088 972.469 -13.128 979.861 -9.208C987.253 -5.288 993.077 0.367997 997.333 7.76C1001.59 15.04 1003.72 23.496 1003.72 33.128C1003.72 42.76 1001.53 51.272 997.165 58.664C992.909 65.944 987.029 71.544 979.525 75.464C972.133 79.384 963.845 81.344 954.661 81.344ZM954.661 56.48C960.149 56.48 964.797 54.464 968.605 50.432C972.525 46.4 974.485 40.632 974.485 33.128C974.485 25.624 972.581 19.856 968.773 15.824C965.077 11.792 960.485 9.776 954.997 9.776C949.397 9.776 944.749 11.792 941.053 15.824C937.357 19.744 935.509 25.512 935.509 33.128C935.509 40.632 937.301 46.4 940.885 50.432C944.581 54.464 949.173 56.48 954.661 56.48ZM1072.72 -14.752C1083.69 -14.752 1092.43 -11.168 1098.93 -4C1105.53 3.056 1108.84 12.8 1108.84 25.232V80H1080.28V29.096C1080.28 22.824 1078.65 17.952 1075.41 14.48C1072.16 11.008 1067.79 9.27199 1062.3 9.27199C1056.81 9.27199 1052.45 11.008 1049.2 14.48C1045.95 17.952 1044.33 22.824 1044.33 29.096V80H1015.6V-13.744H1044.33V-1.312C1047.24 -5.456 1051.16 -8.70401 1056.09 -11.056C1061.01 -13.52 1066.56 -14.752 1072.72 -14.752ZM1163.24 -42.136L1159.88 38.336H1135.52L1132.16 -42.136H1163.24ZM1148.12 81.344C1143.08 81.344 1138.94 79.888 1135.69 76.976C1132.55 73.952 1130.98 70.256 1130.98 65.888C1130.98 61.408 1132.55 57.656 1135.69 54.632C1138.94 51.608 1143.08 50.096 1148.12 50.096C1153.05 50.096 1157.08 51.608 1160.22 54.632C1163.46 57.656 1165.09 61.408 1165.09 65.888C1165.09 70.256 1163.46 73.952 1160.22 76.976C1157.08 79.888 1153.05 81.344 1148.12 81.344ZM1225.67 -42.136L1222.31 38.336H1197.95L1194.59 -42.136H1225.67ZM1210.55 81.344C1205.51 81.344 1201.37 79.888 1198.12 76.976C1194.98 73.952 1193.41 70.256 1193.41 65.888C1193.41 61.408 1194.98 57.656 1198.12 54.632C1201.37 51.608 1205.51 50.096 1210.55 50.096C1215.48 50.096 1219.51 51.608 1222.65 54.632C1225.89 57.656 1227.52 61.408 1227.52 65.888C1227.52 70.256 1225.89 73.952 1222.65 76.976C1219.51 79.888 1215.48 81.344 1210.55 81.344ZM1288.1 -42.136L1284.74 38.336H1260.38L1257.02 -42.136H1288.1ZM1272.98 81.344C1267.94 81.344 1263.79 79.888 1260.55 76.976C1257.41 73.952 1255.84 70.256 1255.84 65.888C1255.84 61.408 1257.41 57.656 1260.55 54.632C1263.79 51.608 1267.94 50.096 1272.98 50.096C1277.91 50.096 1281.94 51.608 1285.07 54.632C1288.32 57.656 1289.95 61.408 1289.95 65.888C1289.95 70.256 1288.32 73.952 1285.07 76.976C1281.94 79.888 1277.91 81.344 1272.98 81.344Z"/>
</mask>
<path d="M9.43231 -10.216L10.3065 -9.73035L10.309 -9.7349L9.43231 -10.216ZM30.4323 -31.552L30.9226 -30.6804L30.9261 -30.6824L30.4323 -31.552ZM97.1283 -28.192L97.724 -28.9952L97.1283 -28.192ZM117.12 2.048V3.048H118.418L118.087 1.7935L117.12 2.048ZM85.5363 2.048L84.6338 2.47873L84.9055 3.048H85.5363V2.048ZM75.4563 -9.208L74.9385 -8.35245L74.9483 -8.34663L75.4563 -9.208ZM39.3363 -3.832L40.083 -3.16679L39.3363 -3.832ZM75.4563 50.936L74.9483 50.0746L74.9385 50.0805L75.4563 50.936ZM85.5363 39.68V38.68H84.9055L84.6338 39.2493L85.5363 39.68ZM117.12 39.68L118.087 39.9345L118.418 38.68H117.12V39.68ZM97.1283 69.92L97.7181 70.7276L97.724 70.7232L97.1283 69.92ZM30.4323 73.28L29.9338 74.1469L29.9402 74.1506L29.9467 74.1542L30.4323 73.28ZM9.43231 51.944L10.3065 51.4584L9.43231 51.944ZM2.87231 20.864C2.87231 9.36477 5.3587 -0.824387 10.3065 -9.73035L8.55815 -10.7016C3.42591 -1.46362 0.872308 9.06722 0.872308 20.864H2.87231ZM10.309 -9.7349C15.261 -18.7585 22.1285 -25.7338 30.9226 -30.6804L29.942 -32.4236C20.8161 -27.2902 13.6837 -20.0415 8.55564 -10.6971L10.309 -9.7349ZM30.9261 -30.6824C39.8336 -35.741 49.9085 -38.28 61.1763 -38.28V-40.28C49.5961 -40.28 39.1751 -37.667 29.9385 -32.4216L30.9261 -30.6824ZM61.1763 -38.28C74.9906 -38.28 86.7587 -34.6369 96.5327 -27.3888L97.724 -28.9952C87.5619 -36.5312 75.3621 -40.28 61.1763 -40.28V-38.28ZM96.5327 -27.3888C106.306 -20.1412 112.847 -10.2608 116.153 2.30249L118.087 1.7935C114.674 -11.1792 107.887 -21.4588 97.724 -28.9952L96.5327 -27.3888ZM117.12 1.048H85.5363V3.048H117.12V1.048ZM86.4388 1.61727C84.008 -3.47587 80.517 -7.38443 75.9643 -10.0694L74.9483 -8.34663C79.1316 -5.87958 82.3606 -2.28414 84.6338 2.47873L86.4388 1.61727ZM75.9741 -10.0635C71.5461 -12.7436 66.4915 -14.072 60.8403 -14.072V-12.072C66.1652 -12.072 70.8545 -10.8244 74.9385 -8.3525L75.9741 -10.0635ZM60.8403 -14.072C51.7304 -14.072 44.2824 -10.887 38.5896 -4.49721L40.083 -3.16679C45.3662 -9.09701 52.2542 -12.072 60.8403 -12.072V-14.072ZM38.5896 -4.49721C32.9007 1.88834 30.1043 10.3781 30.1043 20.864H32.1043C32.1043 10.7419 34.7959 2.76765 40.083 -3.16679L38.5896 -4.49721ZM30.1043 20.864C30.1043 31.3499 32.9007 39.8397 38.5896 46.2252L40.083 44.8948C34.7959 38.9603 32.1043 30.9861 32.1043 20.864H30.1043ZM38.5896 46.2252C44.2824 52.615 51.7304 55.8 60.8403 55.8V53.8C52.2542 53.8 45.3662 50.825 40.083 44.8948L38.5896 46.2252ZM60.8403 55.8C66.4915 55.8 71.5461 54.4716 75.9741 51.7915L74.9385 50.0805C70.8545 52.5524 66.1652 53.8 60.8403 53.8V55.8ZM75.9643 51.7974C80.517 49.1124 84.008 45.2039 86.4388 40.1107L84.6338 39.2493C82.3606 44.0121 79.1316 47.6076 74.9483 50.0746L75.9643 51.7974ZM85.5363 40.68H117.12V38.68H85.5363V40.68ZM116.153 39.4255C112.847 51.9888 106.306 61.8692 96.5327 69.1168L97.724 70.7232C107.887 63.1868 114.674 52.9072 118.087 39.9345L116.153 39.4255ZM96.5385 69.1124C86.7643 76.251 74.994 79.84 61.1763 79.84V81.84C75.3587 81.84 87.5564 78.149 97.7181 70.7276L96.5385 69.1124ZM61.1763 79.84C49.9047 79.84 39.8268 77.3552 30.918 72.4058L29.9467 74.1542C39.1818 79.2848 49.5999 81.84 61.1763 81.84V79.84ZM30.9308 72.4131C22.129 67.3521 15.2586 60.3722 10.3065 51.4584L8.55815 52.4296C13.686 61.6598 20.8156 68.9039 29.9338 74.1469L30.9308 72.4131ZM10.3065 51.4584C5.3587 42.5524 2.87231 32.3632 2.87231 20.864H0.872308C0.872308 32.6608 3.42591 43.1916 8.55815 52.4296L10.3065 51.4584ZM149.161 75.464L148.687 76.3445L148.693 76.3475L149.161 75.464ZM131.857 58.664L130.988 59.1587L130.994 59.1687L131.857 58.664ZM132.025 7.76L132.888 8.26471L132.892 8.25896L132.025 7.76ZM149.497 -9.208L149.966 -8.32454L149.497 -9.208ZM199.225 -9.208L198.757 -8.32454L199.225 -9.208ZM216.697 7.76L215.83 8.25897L215.834 8.26469L216.697 7.76ZM216.529 58.664L215.668 58.1553L215.666 58.1593L216.529 58.664ZM198.889 75.464L198.426 74.5776L198.421 74.5805L198.889 75.464ZM187.969 50.432L187.252 49.7349L187.247 49.7401L187.242 49.7454L187.969 50.432ZM188.137 15.824L187.4 16.4997L187.405 16.5052L187.41 16.5106L188.137 15.824ZM160.417 15.824L161.145 16.5101L161.154 16.4997L160.417 15.824ZM160.249 50.432L159.502 51.0964L159.507 51.1021L159.512 51.1077L160.249 50.432ZM174.025 80.344C164.988 80.344 156.864 78.4167 149.63 74.5805L148.693 76.3475C156.243 80.3513 164.694 82.344 174.025 82.344V80.344ZM149.635 74.5835C142.52 70.7525 136.886 65.284 132.72 58.1593L130.994 59.1687C135.341 66.604 141.242 72.3355 148.687 76.3445L149.635 74.5835ZM132.726 58.1693C128.681 51.0631 126.641 42.7271 126.641 33.128H124.641C124.641 43.0169 126.745 51.7049 130.988 59.1587L132.726 58.1693ZM126.641 33.128C126.641 23.6477 128.734 15.3708 132.888 8.26469L131.162 7.2553C126.804 14.7092 124.641 23.3443 124.641 33.128H126.641ZM132.892 8.25896C137.056 1.02668 142.743 -4.49449 149.966 -8.32454L149.029 -10.0915C141.467 -6.08151 135.506 -0.290688 131.158 7.26103L132.892 8.25896ZM149.966 -8.32454C157.2 -12.1607 165.324 -14.088 174.361 -14.088V-16.088C165.03 -16.088 156.579 -14.0953 149.029 -10.0915L149.966 -8.32454ZM174.361 -14.088C183.398 -14.088 191.523 -12.1607 198.757 -8.32454L199.694 -10.0915C192.144 -14.0953 183.692 -16.088 174.361 -16.088V-14.088ZM198.757 -8.32454C205.979 -4.49449 211.666 1.02668 215.83 8.25896L217.564 7.26103C213.216 -0.290688 207.255 -6.08151 199.694 -10.0915L198.757 -8.32454ZM215.834 8.26469C219.988 15.3708 222.081 23.6477 222.081 33.128H224.081C224.081 23.3443 221.918 14.7092 217.56 7.2553L215.834 8.26469ZM222.081 33.128C222.081 42.6033 219.934 50.9355 215.668 58.1553L217.39 59.1727C221.86 51.6085 224.081 42.9167 224.081 33.128H222.081ZM215.666 58.1593C211.505 65.2763 205.764 70.7443 198.426 74.5777L199.352 76.3503C207.022 72.3437 213.041 66.6117 217.392 59.1687L215.666 58.1593ZM198.421 74.5805C191.187 78.4167 183.062 80.344 174.025 80.344V82.344C183.356 82.344 191.808 80.3513 199.358 76.3475L198.421 74.5805ZM174.025 57.48C179.791 57.48 184.701 55.3483 188.696 51.1186L187.242 49.7454C183.621 53.5798 179.235 55.48 174.025 55.48V57.48ZM188.686 51.1291C192.842 46.8548 194.849 40.8028 194.849 33.128H192.849C192.849 40.4612 190.937 45.9452 187.252 49.7349L188.686 51.1291ZM194.849 33.128C194.849 25.4605 192.902 19.4125 188.864 15.1374L187.41 16.5106C190.988 20.2995 192.849 25.7875 192.849 33.128H194.849ZM188.874 15.1483C184.988 10.9089 180.128 8.776 174.361 8.776V10.776C179.57 10.776 183.894 12.6751 187.4 16.4997L188.874 15.1483ZM174.361 8.776C168.488 8.776 163.57 10.9041 159.68 15.1483L161.154 16.4997C164.656 12.6799 169.034 10.776 174.361 10.776V8.776ZM159.689 15.138C155.757 19.3083 153.873 25.3627 153.873 33.128H155.873C155.873 25.6613 157.685 20.1796 161.145 16.51L159.689 15.138ZM153.873 33.128C153.873 40.7812 155.701 46.8206 159.502 51.0964L160.996 49.7676C157.629 45.9794 155.873 40.4828 155.873 33.128H153.873ZM159.512 51.1077C163.398 55.3471 168.258 57.48 174.025 57.48V55.48C168.816 55.48 164.492 53.5809 160.986 49.7563L159.512 51.1077ZM382.298 -4.16801L381.579 -3.47237L381.585 -3.46658L382.298 -4.16801ZM392.714 80V81H393.714V80H392.714ZM364.154 80H363.154V81H364.154V80ZM359.282 15.152L358.551 15.8343L358.563 15.8469L358.575 15.8591L359.282 15.152ZM332.906 15.152L332.187 14.457L332.186 14.4574L332.906 15.152ZM328.202 80V81H329.202V80H328.202ZM299.642 80H298.642V81H299.642V80ZM294.77 15.152L294.039 15.8343L294.051 15.8469L294.063 15.8591L294.77 15.152ZM268.394 15.152L267.675 14.457L267.674 14.4574L268.394 15.152ZM263.69 80V81H264.69V80H263.69ZM234.962 80H233.962V81H234.962V80ZM234.962 -13.744V-14.744H233.962V-13.744H234.962ZM263.69 -13.744H264.69V-14.744H263.69V-13.744ZM263.69 -1.98401H262.69V1.03909L264.493 -1.38768L263.69 -1.98401ZM275.114 -11.224L275.544 -10.3211L275.552 -10.3253L275.561 -10.3296L275.114 -11.224ZM309.89 -10.216L309.407 -9.34013L309.415 -9.3361L309.89 -10.216ZM322.994 2.72L322.121 3.2086L322.943 4.6758L323.84 3.2533L322.994 2.72ZM354.578 -13.752C366.009 -13.752 374.971 -10.298 381.579 -3.4724L383.016 -4.86362C375.961 -12.15 366.442 -15.752 354.578 -15.752V-13.752ZM381.585 -3.46658C388.299 3.35579 391.714 12.8769 391.714 25.232H393.714C393.714 12.4991 390.184 2.4202 383.011 -4.86944L381.585 -3.46658ZM391.714 25.232V80H393.714V25.232H391.714ZM392.714 79H364.154V81H392.714V79ZM365.154 80V29.096H363.154V80H365.154ZM365.154 29.096C365.154 22.8699 363.478 17.9342 359.989 14.4449L358.575 15.8591C361.581 18.8658 363.154 23.2261 363.154 29.096H365.154ZM360.013 14.4697C356.647 10.8639 351.99 9.112 346.178 9.112V11.112C351.566 11.112 355.644 12.7201 358.551 15.8343L360.013 14.4697ZM346.178 9.112C340.365 9.112 335.66 10.864 332.187 14.457L333.625 15.847C336.648 12.72 340.791 11.112 346.178 11.112V9.112ZM332.186 14.4574C328.816 17.948 327.202 22.8791 327.202 29.096H329.202C329.202 23.2169 330.723 18.852 333.625 15.8466L332.186 14.4574ZM327.202 29.096V80H329.202V29.096H327.202ZM328.202 79H299.642V81H328.202V79ZM300.642 80V29.096H298.642V80H300.642ZM300.642 29.096C300.642 22.8699 298.966 17.9342 295.477 14.4449L294.063 15.8591C297.069 18.8658 298.642 23.2261 298.642 29.096H300.642ZM295.501 14.4697C292.135 10.8639 287.478 9.112 281.666 9.112V11.112C287.054 11.112 291.132 12.7201 294.039 15.8343L295.501 14.4697ZM281.666 9.112C275.853 9.112 271.148 10.864 267.675 14.457L269.113 15.847C272.136 12.72 276.279 11.112 281.666 11.112V9.112ZM267.674 14.4574C264.304 17.948 262.69 22.8791 262.69 29.096H264.69C264.69 23.2169 266.211 18.852 269.113 15.8466L267.674 14.4574ZM262.69 29.096V80H264.69V29.096H262.69ZM263.69 79H234.962V81H263.69V79ZM235.962 80V-13.744H233.962V80H235.962ZM234.962 -12.744H263.69V-14.744H234.962V-12.744ZM262.69 -13.744V-1.98401H264.69V-13.744H262.69ZM264.493 -1.38768C267.301 -5.16785 270.977 -8.14651 275.544 -10.3211L274.684 -12.1269C269.843 -9.82149 265.903 -6.64015 262.887 -2.58033L264.493 -1.38768ZM275.561 -10.3296C280.109 -12.6037 285.273 -13.752 291.074 -13.752V-15.752C285.003 -15.752 279.526 -14.5483 274.667 -12.1184L275.561 -10.3296ZM291.074 -13.752C297.983 -13.752 304.085 -12.2729 309.407 -9.34016L310.372 -11.0918C304.719 -14.2071 298.277 -15.752 291.074 -15.752V-13.752ZM309.415 -9.3361C314.846 -6.40302 319.077 -2.22742 322.121 3.2086L323.866 2.23139C320.638 -3.53259 316.133 -7.98099 310.365 -11.0959L309.415 -9.3361ZM323.84 3.2533C326.996 -1.75333 331.298 -5.84284 336.768 -9.01498L335.764 -10.745C330.033 -7.42117 325.488 -3.11067 322.148 2.1867L323.84 3.2533ZM336.768 -9.01498C342.212 -12.1727 348.142 -13.752 354.578 -13.752V-15.752C347.797 -15.752 341.52 -14.0833 335.764 -10.745L336.768 -9.01498ZM411.462 -27.856L410.767 -27.1362L410.781 -27.1236L410.794 -27.1114L411.462 -27.856ZM411.462 -50.032L412.142 -49.2992L412.143 -49.3001L411.462 -50.032ZM435.99 -50.032L435.295 -49.3122L435.309 -49.2996L435.322 -49.2874L435.99 -50.032ZM435.99 -27.856L436.67 -27.1232L436.671 -27.1241L435.99 -27.856ZM438.174 -13.744H439.174V-14.744H438.174V-13.744ZM438.174 80V81H439.174V80H438.174ZM409.446 80H408.446V81H409.446V80ZM409.446 -13.744V-14.744H408.446V-13.744H409.446ZM423.894 -24.488C419.059 -24.488 415.165 -25.8784 412.129 -28.6006L410.794 -27.1114C414.254 -24.0096 418.648 -22.488 423.894 -22.488V-24.488ZM412.156 -28.5758C409.216 -31.4108 407.758 -34.8467 407.758 -38.944H405.758C405.758 -34.3053 407.435 -30.3492 410.767 -27.1362L412.156 -28.5758ZM407.758 -38.944C407.758 -43.1606 409.22 -46.5862 412.142 -49.2992L410.781 -50.7648C407.431 -47.6538 405.758 -43.6874 405.758 -38.944H407.758ZM412.143 -49.3001C415.181 -52.1282 419.069 -53.568 423.894 -53.568V-55.568C418.638 -55.568 414.239 -53.9838 410.78 -50.7639L412.143 -49.3001ZM423.894 -53.568C428.599 -53.568 432.371 -52.1324 435.295 -49.3122L436.684 -50.7519C433.336 -53.9796 429.044 -55.568 423.894 -55.568V-53.568ZM435.322 -49.2874C438.352 -46.5709 439.862 -43.1486 439.862 -38.944H441.862C441.862 -43.6994 440.123 -47.6691 436.657 -50.7766L435.322 -49.2874ZM439.862 -38.944C439.862 -34.8586 438.357 -31.4262 435.308 -28.5879L436.671 -27.1241C440.118 -30.3338 441.862 -34.2934 441.862 -38.944H439.862ZM435.309 -28.5888C432.386 -25.8745 428.61 -24.488 423.894 -24.488V-22.488C429.033 -22.488 433.321 -24.0135 436.67 -27.1232L435.309 -28.5888ZM437.174 -13.744V80H439.174V-13.744H437.174ZM438.174 79H409.446V81H438.174V79ZM410.446 80V-13.744H408.446V80H410.446ZM409.446 -12.744H438.174V-14.744H409.446V-12.744ZM538.96 -4L538.219 -3.32848L538.225 -3.32242L538.231 -3.31644L538.96 -4ZM548.872 80V81H549.872V80H548.872ZM520.312 80H519.312V81H520.312V80ZM515.44 14.48L514.71 15.1632L515.44 14.48ZM489.232 14.48L489.963 15.1632L489.232 14.48ZM484.36 80V81H485.36V80H484.36ZM455.632 80H454.632V81H455.632V80ZM455.632 -13.744V-14.744H454.632V-13.744H455.632ZM484.36 -13.744H485.36V-14.744H484.36V-13.744ZM484.36 -1.312H483.36V1.85036L485.179 -0.737061L484.36 -1.312ZM496.12 -11.056L496.551 -10.1535L496.559 -10.1575L496.568 -10.1616L496.12 -11.056ZM512.752 -13.752C523.488 -13.752 531.94 -10.2581 538.219 -3.32848L539.701 -4.67152C532.989 -12.0779 523.969 -15.752 512.752 -15.752V-13.752ZM538.231 -3.31644C544.62 3.50581 547.872 12.9787 547.872 25.232H549.872C549.872 12.6213 546.517 2.60619 539.69 -4.68356L538.231 -3.31644ZM547.872 25.232V80H549.872V25.232H547.872ZM548.872 79H520.312V81H548.872V79ZM521.312 80V29.096H519.312V80H521.312ZM521.312 29.096C521.312 22.6534 519.641 17.507 516.171 13.7968L514.71 15.1632C517.735 18.397 519.312 22.9946 519.312 29.096H521.312ZM516.171 13.7968C512.704 10.0909 508.054 8.272 502.336 8.272V10.272C507.594 10.272 511.681 11.9251 514.71 15.1632L516.171 13.7968ZM502.336 8.272C496.618 8.272 491.969 10.0909 488.502 13.7968L489.963 15.1632C492.992 11.9251 497.078 10.272 502.336 10.272V8.272ZM488.502 13.7968C485.031 17.507 483.36 22.6534 483.36 29.096H485.36C485.36 22.9946 486.938 18.397 489.963 15.1632L488.502 13.7968ZM483.36 29.096V80H485.36V29.096H483.36ZM484.36 79H455.632V81H484.36V79ZM456.632 80V-13.744H454.632V80H456.632ZM455.632 -12.744H484.36V-14.744H455.632V-12.744ZM483.36 -13.744V-1.312H485.36V-13.744H483.36ZM485.179 -0.737061C487.984 -4.72948 491.766 -7.86961 496.551 -10.1535L495.69 -11.9585C490.619 -9.5384 486.561 -6.18253 483.542 -1.88695L485.179 -0.737061ZM496.568 -10.1616C501.341 -12.5483 506.729 -13.752 512.752 -13.752V-15.752C506.456 -15.752 500.756 -14.4917 495.673 -11.9504L496.568 -10.1616ZM618.396 -11.056L617.917 -10.1781L617.925 -10.1737L618.396 -11.056ZM629.988 -0.472008L629.136 0.0520935L630.988 3.06104V-0.472008H629.988ZM629.988 -13.744V-14.744H628.988V-13.744H629.988ZM658.716 -13.744H659.716V-14.744H658.716V-13.744ZM653.508 103.184L652.613 102.737L652.609 102.745L652.605 102.754L653.508 103.184ZM637.884 119.984L637.377 119.122L637.371 119.125L637.884 119.984ZM578.076 116.288L578.684 115.494L578.677 115.489L578.076 116.288ZM563.292 89.744V88.744H562.176L562.298 89.8533L563.292 89.744ZM591.684 89.744L592.654 89.5015L592.464 88.744H591.684V89.744ZM598.068 98.144L598.603 97.2992L598.592 97.2927L598.582 97.2865L598.068 98.144ZM624.612 96.128L623.928 95.3985L623.916 95.4095L623.904 95.4209L624.612 96.128ZM629.988 66.56H630.988V63.147L629.146 66.0203L629.988 66.56ZM618.396 77.312L618.874 78.1899L618.882 78.1857L618.89 78.1815L618.396 77.312ZM580.092 75.464L579.551 76.3053L579.562 76.312L580.092 75.464ZM565.14 58.496L564.24 58.9323L564.244 58.9405L564.248 58.9487L565.14 58.496ZM565.14 7.592L564.248 7.13927L564.242 7.15031L565.14 7.592ZM580.092 -9.208L580.622 -8.36001L580.092 -9.208ZM623.94 16.16L623.213 16.8473L623.223 16.8574L623.94 16.16ZM594.876 16.16L594.159 15.4626L594.159 15.4629L594.876 16.16ZM594.876 50.096L594.14 50.7735L594.149 50.7835L594.159 50.7934L594.876 50.096ZM623.94 50.096L623.223 49.3986L623.213 49.4088L623.94 50.096ZM601.092 -14.088C607.562 -14.088 613.16 -12.7729 617.917 -10.1781L618.874 -11.9339C613.776 -14.7151 607.837 -16.088 601.092 -16.088V-14.088ZM617.925 -10.1737C622.827 -7.55942 626.551 -4.14811 629.136 0.0520935L630.839 -0.996101C628.048 -5.5319 624.044 -9.17659 618.866 -11.9384L617.925 -10.1737ZM630.988 -0.472008V-13.744H628.988V-0.472008H630.988ZM629.988 -12.744H658.716V-14.744H629.988V-12.744ZM657.716 -13.744V79.832H659.716V-13.744H657.716ZM657.716 79.832C657.716 88.3182 656.008 95.9464 652.613 102.737L654.402 103.631C657.951 96.5336 659.716 88.5938 659.716 79.832H657.716ZM652.605 102.754C649.335 109.621 644.269 115.074 637.377 119.122L638.39 120.846C645.61 116.606 650.96 110.859 654.41 103.614L652.605 102.754ZM637.371 119.125C630.621 123.154 622.13 125.2 611.844 125.2V127.2C622.389 127.2 631.258 125.102 638.396 120.843L637.371 119.125ZM611.844 125.2C598.114 125.2 587.09 121.935 578.684 115.494L577.467 117.082C586.309 123.857 597.797 127.2 611.844 127.2V125.2ZM578.677 115.489C570.284 109.167 565.489 100.574 564.286 89.6347L562.298 89.8533C563.558 101.314 568.619 110.417 577.474 117.087L578.677 115.489ZM563.292 90.744H591.684V88.744H563.292V90.744ZM590.713 89.9865C591.678 93.8447 593.981 96.8582 597.553 99.0015L598.582 97.2865C595.434 95.3978 593.481 92.8113 592.654 89.5015L590.713 89.9865ZM597.533 98.9888C601.087 101.24 605.427 102.336 610.5 102.336V100.336C605.716 100.336 601.768 99.304 598.603 97.2992L597.533 98.9888ZM610.5 102.336C616.642 102.336 621.621 100.533 625.319 96.8351L623.904 95.4209C620.658 98.6673 616.23 100.336 610.5 100.336V102.336ZM625.296 96.8575C629.167 93.2283 630.988 87.4679 630.988 79.832H628.988C628.988 87.2041 627.224 92.3077 623.928 95.3985L625.296 96.8575ZM630.988 79.832V66.56H628.988V79.832H630.988ZM629.146 66.0203C626.441 70.2395 622.702 73.7151 617.902 76.4426L618.89 78.1815C623.945 75.3089 627.934 71.6165 630.829 67.0997L629.146 66.0203ZM617.917 76.4341C613.16 79.0289 607.562 80.344 601.092 80.344V82.344C607.837 82.344 613.776 80.9711 618.874 78.1899L617.917 76.4341ZM601.092 80.344C593.542 80.344 586.727 78.4321 580.622 74.616L579.562 76.312C586 80.3359 593.185 82.344 601.092 82.344V80.344ZM580.632 74.6228C574.524 70.6958 569.655 65.1804 566.031 58.0433L564.248 58.9487C568.016 66.3716 573.115 72.1682 579.551 76.3052L580.632 74.6228ZM566.039 58.0597C562.532 50.8253 560.764 42.4668 560.764 32.96H558.764C558.764 42.7172 560.579 51.3827 564.24 58.9323L566.039 58.0597ZM560.764 32.96C560.764 23.4527 562.532 15.1529 566.037 8.03368L564.242 7.15031C560.579 14.5911 558.764 23.2032 558.764 32.96H560.764ZM566.031 8.04469C569.654 0.909546 574.52 -4.54624 580.622 -8.36001L579.562 -10.056C573.12 -6.02976 568.017 -0.285553 564.248 7.13931L566.031 8.04469ZM580.622 -8.36001C586.727 -12.1761 593.542 -14.088 601.092 -14.088V-16.088C593.185 -16.088 586 -14.0799 579.562 -10.056L580.622 -8.36001ZM630.988 33.128C630.988 25.7654 628.911 19.8357 624.656 15.4626L623.223 16.8574C627.032 20.7723 628.988 26.1546 628.988 33.128H630.988ZM624.666 15.4728C620.557 11.1288 615.478 8.94399 609.492 8.94399V10.944C614.929 10.944 619.482 12.9032 623.213 16.8472L624.666 15.4728ZM609.492 8.94399C603.506 8.94399 598.377 11.1278 594.159 15.4626L595.592 16.8574C599.439 12.9042 604.053 10.944 609.492 10.944V8.94399ZM594.159 15.4629C590.011 19.729 587.996 25.6064 587.996 32.96H589.996C589.996 25.9776 591.9 20.6549 595.593 16.8571L594.159 15.4629ZM587.996 32.96C587.996 40.3163 590.012 46.2914 594.14 50.7735L595.611 49.4185C591.899 45.3886 589.996 39.9397 589.996 32.96H587.996ZM594.159 50.7934C598.377 55.1282 603.506 57.312 609.492 57.312V55.312C604.053 55.312 599.439 53.3518 595.592 49.3987L594.159 50.7934ZM609.492 57.312C615.478 57.312 620.557 55.1272 624.666 50.7832L623.213 49.4088C619.482 53.3528 614.929 55.312 609.492 55.312V57.312ZM624.656 50.7934C628.911 46.4203 630.988 40.4906 630.988 33.128H628.988C628.988 40.1014 627.032 45.4837 623.223 49.3987L624.656 50.7934ZM727.869 76.976L727.489 77.9013L727.869 76.976ZM711.405 64.544L710.599 65.1361L710.607 65.1466L711.405 64.544ZM705.021 44.72V43.72H703.991L704.021 44.749L705.021 44.72ZM735.597 44.72L736.591 44.618L736.499 43.72H735.597V44.72ZM740.133 54.8L739.458 55.5385L739.467 55.5467L739.476 55.5546L740.133 54.8ZM760.293 55.304L760.904 56.0953L760.915 56.0868L760.926 56.078L760.293 55.304ZM760.965 39.848L760.257 40.5551L760.268 40.5652L760.278 40.575L760.965 39.848ZM753.741 35.144L753.338 36.0593L753.344 36.0622L753.351 36.065L753.741 35.144ZM741.645 30.944L741.349 31.8995L741.359 31.9024L741.645 30.944ZM710.565 13.472L711.362 12.8689L710.565 13.472ZM717.285 -30.208L717.897 -29.4174L717.904 -29.4228L717.285 -30.208ZM779.781 -30.208L779.161 -29.4228L779.168 -29.4174L779.781 -30.208ZM792.549 -4.33601V-3.33601H793.6L793.547 -4.38644L792.549 -4.33601ZM761.469 -4.33601L760.47 -4.27728L760.526 -3.33601H761.469V-4.33601ZM757.269 -13.24L756.612 -12.4854L756.622 -12.4771L756.632 -12.469L757.269 -13.24ZM738.957 -13.744L739.601 -12.9791L739.612 -12.9888L739.623 -12.9988L738.957 -13.744ZM741.141 3.05599L741.651 2.19614L741.141 3.05599ZM757.941 9.94399L758.261 8.99663L758.248 8.99255L757.941 9.94399ZM776.421 17.336L775.973 18.2305L775.982 18.2346L776.421 17.336ZM788.853 27.584L788.062 28.1966L788.853 27.584ZM788.853 63.2L788.007 62.6654L788.004 62.6716L788 62.6778L788.853 63.2ZM774.069 76.304L773.621 75.4096L774.069 76.304ZM751.053 80.176C742.537 80.176 734.941 78.7938 728.248 76.0507L727.489 77.9013C734.46 80.7582 742.32 82.176 751.053 82.176V80.176ZM728.248 76.0507C721.569 73.3135 716.23 69.2757 712.203 63.9414L710.607 65.1466C714.867 70.7883 720.504 75.0385 727.489 77.9013L728.248 76.0507ZM712.21 63.9519C708.315 58.6491 706.239 52.2445 706.02 44.691L704.021 44.749C704.25 52.6515 706.431 59.4629 710.599 65.1361L712.21 63.9519ZM705.021 45.72H735.597V43.72H705.021V45.72ZM734.602 44.822C735.068 49.3688 736.658 52.9813 739.458 55.5385L740.807 54.0615C738.456 51.9147 737.021 48.8072 736.591 44.618L734.602 44.822ZM739.476 55.5546C742.271 57.985 745.881 59.16 750.213 59.16V57.16C746.256 57.16 743.146 56.095 740.789 54.0454L739.476 55.5546ZM750.213 59.16C754.61 59.16 758.211 58.1766 760.904 56.0953L759.681 54.5127C757.447 56.2394 754.327 57.16 750.213 57.16V59.16ZM760.926 56.078C763.645 53.8533 764.989 50.813 764.989 47.072H762.989C762.989 50.275 761.868 52.7227 759.659 54.53L760.926 56.078ZM764.989 47.072C764.989 43.9004 763.878 41.2243 761.651 39.121L760.278 40.575C762.083 42.2797 762.989 44.4196 762.989 47.072H764.989ZM761.672 39.1409C759.662 37.1314 757.14 35.4966 754.13 34.223L753.351 36.065C756.165 37.2554 758.459 38.7566 760.257 40.5551L761.672 39.1409ZM754.143 34.2287C751.286 32.9717 747.208 31.5578 741.93 29.9856L741.359 31.9024C746.609 33.4662 750.595 34.8523 753.338 36.0593L754.143 34.2287ZM741.94 29.9885C734.352 27.6452 728.189 25.3107 723.435 22.9894L722.558 24.7866C727.437 27.1693 733.705 29.5388 741.349 31.8995L741.94 29.9885ZM723.435 22.9894C718.771 20.7114 714.747 17.3451 711.362 12.8689L709.767 14.0751C713.326 18.7829 717.59 22.3606 722.558 24.7866L723.435 22.9894ZM711.362 12.8689C708.055 8.4944 706.357 2.73257 706.357 -4.50401H704.357C704.357 3.04343 706.13 9.26559 709.767 14.0751L711.362 12.8689ZM706.357 -4.50401C706.357 -15.2032 710.214 -23.4659 717.897 -29.4174L716.672 -30.9986C708.451 -24.6301 704.357 -15.7569 704.357 -4.50401H706.357ZM717.904 -29.4228C725.638 -35.5228 735.762 -38.616 748.365 -38.616V-40.616C735.432 -40.616 724.835 -37.4372 716.665 -30.9932L717.904 -29.4228ZM748.365 -38.616C761.196 -38.616 771.43 -35.5205 779.161 -29.4228L780.4 -30.9932C772.227 -37.4395 761.517 -40.616 748.365 -40.616V-38.616ZM779.168 -29.4174C786.864 -23.4559 791.003 -15.1163 791.55 -4.28557L793.547 -4.38644C792.974 -15.7317 788.601 -24.6401 780.393 -30.9986L779.168 -29.4174ZM792.549 -5.33601H761.469V-3.33601H792.549V-5.33601ZM762.467 -4.39473C762.229 -8.43684 760.727 -11.6803 757.905 -14.011L756.632 -12.469C758.962 -10.5437 760.26 -7.85117 760.47 -4.27728L762.467 -4.39473ZM757.925 -13.9946C755.135 -16.4206 751.584 -17.6 747.357 -17.6V-15.6C751.193 -15.6 754.25 -14.5394 756.612 -12.4854L757.925 -13.9946ZM747.357 -17.6C743.694 -17.6 740.639 -16.591 738.29 -14.4892L739.623 -12.9988C741.53 -14.705 744.075 -15.6 747.357 -15.6V-17.6ZM738.312 -14.5089C735.904 -12.481 734.765 -9.53545 734.765 -5.84801H736.765C736.765 -9.10457 737.753 -11.423 739.601 -12.9791L738.312 -14.5089ZM734.765 -5.84801C734.765 -1.64857 736.777 1.62826 740.63 3.91585L741.651 2.19614C738.336 0.22773 736.765 -2.43144 736.765 -5.84801H734.765ZM740.63 3.91585C744.312 6.10217 749.998 8.4254 757.633 10.8954L758.248 8.99255C750.651 6.5346 745.137 4.26582 741.651 2.19614L740.63 3.91585ZM757.62 10.8913C765.213 13.4594 771.326 15.9066 775.973 18.2304L776.868 16.4416C772.107 14.0614 765.9 11.5806 758.261 8.99671L757.62 10.8913ZM775.982 18.2346C780.652 20.5155 784.678 23.8304 788.062 28.1966L789.643 26.9714C786.083 22.3776 781.821 18.8605 776.859 16.4374L775.982 18.2346ZM788.062 28.1966C791.368 32.462 793.061 37.9984 793.061 44.888H795.061C795.061 37.6656 793.281 31.666 789.643 26.9714L788.062 28.1966ZM793.061 44.888C793.061 51.4256 791.375 57.3431 788.007 62.6654L789.698 63.7346C793.274 58.0809 795.061 51.7903 795.061 44.888H793.061ZM788 62.6778C784.75 67.9864 779.972 72.2342 773.621 75.4096L774.516 77.1984C781.157 73.8778 786.236 69.3896 789.705 63.7222L788 62.6778ZM773.621 75.4096C767.291 78.5746 759.779 80.176 751.053 80.176V82.176C760.022 82.176 767.854 80.5294 774.516 77.1984L773.621 75.4096ZM826.188 75.464L825.714 76.3445L825.719 76.3475L826.188 75.464ZM808.884 58.664L808.015 59.1587L808.021 59.1687L808.884 58.664ZM809.052 7.76L809.915 8.26471L809.919 8.25896L809.052 7.76ZM826.524 -9.208L826.992 -8.32454L826.524 -9.208ZM876.252 -9.208L875.783 -8.32454L876.252 -9.208ZM893.724 7.76L892.857 8.25897L892.861 8.26469L893.724 7.76ZM893.556 58.664L892.695 58.1553L892.693 58.1593L893.556 58.664ZM875.916 75.464L875.453 74.5776L875.447 74.5805L875.916 75.464ZM864.996 50.432L864.279 49.7349L864.274 49.7401L864.269 49.7454L864.996 50.432ZM865.164 15.824L864.427 16.4997L864.432 16.5052L864.437 16.5106L865.164 15.824ZM837.444 15.824L838.172 16.5101L838.181 16.4997L837.444 15.824ZM837.276 50.432L836.529 51.0964L836.534 51.1021L836.539 51.1077L837.276 50.432ZM851.052 80.344C842.015 80.344 833.89 78.4167 826.656 74.5805L825.719 76.3475C833.269 80.3513 841.721 82.344 851.052 82.344V80.344ZM826.662 74.5835C819.547 70.7525 813.912 65.284 809.747 58.1593L808.021 59.1687C812.367 66.604 818.269 72.3355 825.714 76.3445L826.662 74.5835ZM809.753 58.1693C805.708 51.0631 803.668 42.7271 803.668 33.128H801.668C801.668 43.0169 803.772 51.7049 808.015 59.1587L809.753 58.1693ZM803.668 33.128C803.668 23.6477 805.761 15.3708 809.915 8.26469L808.189 7.2553C803.831 14.7092 801.668 23.3443 801.668 33.128H803.668ZM809.919 8.25896C814.083 1.02668 819.77 -4.49449 826.992 -8.32454L826.055 -10.0915C818.494 -6.08151 812.533 -0.290688 808.185 7.26103L809.919 8.25896ZM826.992 -8.32454C834.226 -12.1607 842.351 -14.088 851.388 -14.088V-16.088C842.057 -16.088 833.605 -14.0953 826.055 -10.0915L826.992 -8.32454ZM851.388 -14.088C860.425 -14.088 868.549 -12.1607 875.783 -8.32454L876.72 -10.0915C869.17 -14.0953 860.719 -16.088 851.388 -16.088V-14.088ZM875.783 -8.32454C883.006 -4.49449 888.693 1.02668 892.857 8.25896L894.591 7.26103C890.243 -0.290688 884.282 -6.08151 876.72 -10.0915L875.783 -8.32454ZM892.861 8.26469C897.015 15.3708 899.108 23.6477 899.108 33.128H901.108C901.108 23.3443 898.945 14.7092 894.587 7.2553L892.861 8.26469ZM899.108 33.128C899.108 42.6033 896.961 50.9355 892.695 58.1553L894.417 59.1727C898.887 51.6085 901.108 42.9167 901.108 33.128H899.108ZM892.693 58.1593C888.532 65.2763 882.791 70.7443 875.453 74.5777L876.379 76.3503C884.049 72.3437 890.068 66.6117 894.419 59.1687L892.693 58.1593ZM875.447 74.5805C868.213 78.4167 860.089 80.344 851.052 80.344V82.344C860.383 82.344 868.834 80.3513 876.384 76.3475L875.447 74.5805ZM851.052 57.48C856.818 57.48 861.728 55.3483 865.723 51.1186L864.269 49.7454C860.648 53.5798 856.262 55.48 851.052 55.48V57.48ZM865.713 51.1291C869.868 46.8548 871.876 40.8028 871.876 33.128H869.876C869.876 40.4612 867.963 45.9452 864.279 49.7349L865.713 51.1291ZM871.876 33.128C871.876 25.4605 869.929 19.4125 865.891 15.1374L864.437 16.5106C868.015 20.2995 869.876 25.7875 869.876 33.128H871.876ZM865.901 15.1483C862.015 10.9089 857.155 8.776 851.388 8.776V10.776C856.597 10.776 860.921 12.6751 864.427 16.4997L865.901 15.1483ZM851.388 8.776C845.515 8.776 840.597 10.9041 836.707 15.1483L838.181 16.4997C841.683 12.6799 846.061 10.776 851.388 10.776V8.776ZM836.716 15.138C832.784 19.3083 830.9 25.3627 830.9 33.128H832.9C832.9 25.6613 834.712 20.1796 838.172 16.51L836.716 15.138ZM830.9 33.128C830.9 40.7812 832.728 46.8206 836.529 51.0964L838.023 49.7676C834.656 45.9794 832.9 40.4828 832.9 33.128H830.9ZM836.539 51.1077C840.425 55.3471 845.285 57.48 851.052 57.48V55.48C845.843 55.48 841.519 53.5809 838.013 49.7563L836.539 51.1077ZM929.797 75.464L929.323 76.3445L929.328 76.3475L929.797 75.464ZM912.493 58.664L911.624 59.1587L911.629 59.1687L912.493 58.664ZM912.661 7.76L913.524 8.26471L913.527 8.25896L912.661 7.76ZM930.133 -9.208L930.601 -8.32454L930.133 -9.208ZM979.861 -9.208L979.392 -8.32454L979.861 -9.208ZM997.333 7.76L996.466 8.25897L996.469 8.26469L997.333 7.76ZM997.165 58.664L996.304 58.1553L996.301 58.1593L997.165 58.664ZM979.525 75.464L979.062 74.5776L979.056 74.5805L979.525 75.464ZM968.605 50.432L967.888 49.7349L967.883 49.7401L967.878 49.7454L968.605 50.432ZM968.773 15.824L968.036 16.4997L968.041 16.5052L968.046 16.5106L968.773 15.824ZM941.053 15.824L941.78 16.5101L941.79 16.4997L941.053 15.824ZM940.885 50.432L940.137 51.0964L940.142 51.1021L940.148 51.1077L940.885 50.432ZM954.661 80.344C945.624 80.344 937.499 78.4167 930.265 74.5805L929.328 76.3475C936.878 80.3513 945.33 82.344 954.661 82.344V80.344ZM930.271 74.5835C923.156 70.7525 917.521 65.284 913.356 58.1593L911.629 59.1687C915.976 66.604 921.877 72.3355 929.323 76.3445L930.271 74.5835ZM913.362 58.1693C909.317 51.0631 907.277 42.7271 907.277 33.128H905.277C905.277 43.0169 907.381 51.7049 911.624 59.1587L913.362 58.1693ZM907.277 33.128C907.277 23.6477 909.37 15.3708 913.524 8.26469L911.797 7.2553C907.44 14.7092 905.277 23.3443 905.277 33.128H907.277ZM913.527 8.25896C917.691 1.02668 923.379 -4.49449 930.601 -8.32454L929.664 -10.0915C922.103 -6.08151 916.142 -0.290688 911.794 7.26103L913.527 8.25896ZM930.601 -8.32454C937.835 -12.1607 945.96 -14.088 954.997 -14.088V-16.088C945.666 -16.088 937.214 -14.0953 929.664 -10.0915L930.601 -8.32454ZM954.997 -14.088C964.034 -14.088 972.158 -12.1607 979.392 -8.32454L980.329 -10.0915C972.779 -14.0953 964.328 -16.088 954.997 -16.088V-14.088ZM979.392 -8.32454C986.615 -4.49449 992.302 1.02668 996.466 8.25896L998.199 7.26103C993.851 -0.290688 987.891 -6.08151 980.329 -10.0915L979.392 -8.32454ZM996.469 8.26469C1000.62 15.3708 1002.72 23.6477 1002.72 33.128H1004.72C1004.72 23.3443 1002.55 14.7092 998.196 7.2553L996.469 8.26469ZM1002.72 33.128C1002.72 42.6033 1000.57 50.9355 996.304 58.1553L998.026 59.1727C1002.5 51.6085 1004.72 42.9167 1004.72 33.128H1002.72ZM996.301 58.1593C992.141 65.2763 986.4 70.7443 979.062 74.5777L979.988 76.3503C987.658 72.3437 993.677 66.6117 998.028 59.1687L996.301 58.1593ZM979.056 74.5805C971.822 78.4167 963.698 80.344 954.661 80.344V82.344C963.992 82.344 972.443 80.3513 979.993 76.3475L979.056 74.5805ZM954.661 57.48C960.427 57.48 965.337 55.3483 969.332 51.1186L967.878 49.7454C964.256 53.5798 959.87 55.48 954.661 55.48V57.48ZM969.322 51.1291C973.477 46.8548 975.485 40.8028 975.485 33.128H973.485C973.485 40.4612 971.572 45.9452 967.888 49.7349L969.322 51.1291ZM975.485 33.128C975.485 25.4605 973.537 19.4125 969.5 15.1374L968.046 16.5106C971.624 20.2995 973.485 25.7875 973.485 33.128H975.485ZM969.51 15.1483C965.624 10.9089 960.764 8.776 954.997 8.776V10.776C960.205 10.776 964.53 12.6751 968.036 16.4997L969.51 15.1483ZM954.997 8.776C949.124 8.776 944.206 10.9041 940.316 15.1483L941.79 16.4997C945.291 12.6799 949.669 10.776 954.997 10.776V8.776ZM940.325 15.138C936.393 19.3083 934.509 25.3627 934.509 33.128H936.509C936.509 25.6613 938.32 20.1796 941.78 16.51L940.325 15.138ZM934.509 33.128C934.509 40.7812 936.337 46.8206 940.137 51.0964L941.632 49.7676C938.265 45.9794 936.509 40.4828 936.509 33.128H934.509ZM940.148 51.1077C944.034 55.3471 948.893 57.48 954.661 57.48V55.48C949.452 55.48 945.128 53.5809 941.622 49.7563L940.148 51.1077ZM1098.93 -4L1098.18 -3.32848L1098.19 -3.32242L1098.2 -3.31644L1098.93 -4ZM1108.84 80V81H1109.84V80H1108.84ZM1080.28 80H1079.28V81H1080.28V80ZM1075.41 14.48L1074.68 15.1632L1075.41 14.48ZM1049.2 14.48L1049.93 15.1632L1049.2 14.48ZM1044.33 80V81H1045.33V80H1044.33ZM1015.6 80H1014.6V81H1015.6V80ZM1015.6 -13.744V-14.744H1014.6V-13.744H1015.6ZM1044.33 -13.744H1045.33V-14.744H1044.33V-13.744ZM1044.33 -1.312H1043.33V1.85036L1045.14 -0.737061L1044.33 -1.312ZM1056.09 -11.056L1056.52 -10.1535L1056.52 -10.1575L1056.53 -10.1616L1056.09 -11.056ZM1072.72 -13.752C1083.45 -13.752 1091.9 -10.2581 1098.18 -3.32848L1099.67 -4.67152C1092.95 -12.0779 1083.93 -15.752 1072.72 -15.752V-13.752ZM1098.2 -3.31644C1104.58 3.50581 1107.84 12.9787 1107.84 25.232H1109.84C1109.84 12.6213 1106.48 2.60619 1099.66 -4.68356L1098.2 -3.31644ZM1107.84 25.232V80H1109.84V25.232H1107.84ZM1108.84 79H1080.28V81H1108.84V79ZM1081.28 80V29.096H1079.28V80H1081.28ZM1081.28 29.096C1081.28 22.6534 1079.61 17.507 1076.14 13.7968L1074.68 15.1632C1077.7 18.397 1079.28 22.9946 1079.28 29.096H1081.28ZM1076.14 13.7968C1072.67 10.0909 1068.02 8.272 1062.3 8.272V10.272C1067.56 10.272 1071.65 11.9251 1074.68 15.1632L1076.14 13.7968ZM1062.3 8.272C1056.58 8.272 1051.93 10.0909 1048.47 13.7968L1049.93 15.1632C1052.96 11.9251 1057.04 10.272 1062.3 10.272V8.272ZM1048.47 13.7968C1045 17.507 1043.33 22.6534 1043.33 29.096H1045.33C1045.33 22.9946 1046.9 18.397 1049.93 15.1632L1048.47 13.7968ZM1043.33 29.096V80H1045.33V29.096H1043.33ZM1044.33 79H1015.6V81H1044.33V79ZM1016.6 80V-13.744H1014.6V80H1016.6ZM1015.6 -12.744H1044.33V-14.744H1015.6V-12.744ZM1043.33 -13.744V-1.312H1045.33V-13.744H1043.33ZM1045.14 -0.737061C1047.95 -4.72948 1051.73 -7.86961 1056.52 -10.1535L1055.65 -11.9585C1050.58 -9.5384 1046.53 -6.18253 1043.51 -1.88695L1045.14 -0.737061ZM1056.53 -10.1616C1061.31 -12.5483 1066.69 -13.752 1072.72 -13.752V-15.752C1066.42 -15.752 1060.72 -14.4917 1055.64 -11.9504L1056.53 -10.1616ZM1163.24 -42.136L1164.24 -42.0943L1164.28 -43.136H1163.24V-42.136ZM1159.88 38.336V39.336H1160.84L1160.88 38.3777L1159.88 38.336ZM1135.52 38.336L1134.52 38.3777L1134.56 39.336H1135.52V38.336ZM1132.16 -42.136V-43.136H1131.12L1131.16 -42.0943L1132.16 -42.136ZM1135.69 76.976L1134.99 77.6958L1135.01 77.7085L1135.02 77.7206L1135.69 76.976ZM1135.69 54.632L1135.01 53.9001L1135 53.9061L1134.99 53.9122L1135.69 54.632ZM1160.22 54.632L1159.52 55.3518L1159.53 55.3579L1159.54 55.3639L1160.22 54.632ZM1160.22 76.976L1160.9 77.7088L1160.9 77.7079L1160.22 76.976ZM1162.24 -42.1777L1158.88 38.2943L1160.88 38.3777L1164.24 -42.0943L1162.24 -42.1777ZM1159.88 37.336H1135.52V39.336H1159.88V37.336ZM1136.52 38.2943L1133.16 -42.1777L1131.16 -42.0943L1134.52 38.3777L1136.52 38.2943ZM1132.16 -41.136H1163.24V-43.136H1132.16V-41.136ZM1148.12 80.344C1143.29 80.344 1139.39 78.9536 1136.36 76.2314L1135.02 77.7206C1138.48 80.8224 1142.88 82.344 1148.12 82.344V80.344ZM1136.38 76.2561C1133.44 73.4212 1131.98 69.9853 1131.98 65.888H1129.98C1129.98 70.5267 1131.66 74.4828 1134.99 77.6958L1136.38 76.2561ZM1131.98 65.888C1131.98 61.6709 1133.45 58.1814 1136.38 55.3518L1134.99 53.9122C1131.66 57.1306 1129.98 61.1451 1129.98 65.888H1131.98ZM1136.37 55.3639C1139.41 52.5358 1143.3 51.096 1148.12 51.096V49.096C1142.86 49.096 1138.47 50.6802 1135.01 53.9001L1136.37 55.3639ZM1148.12 51.096C1152.83 51.096 1156.6 52.5316 1159.52 55.3518L1160.91 53.9122C1157.56 50.6844 1153.27 49.096 1148.12 49.096V51.096ZM1159.54 55.3639C1162.58 58.1967 1164.09 61.6826 1164.09 65.888H1166.09C1166.09 61.1334 1164.35 57.1153 1160.9 53.9001L1159.54 55.3639ZM1164.09 65.888C1164.09 69.9734 1162.58 73.4058 1159.54 76.2441L1160.9 77.7079C1164.35 74.4982 1166.09 70.5386 1166.09 65.888H1164.09ZM1159.54 76.2432C1156.61 78.9575 1152.84 80.344 1148.12 80.344V82.344C1153.26 82.344 1157.55 80.8185 1160.9 77.7088L1159.54 76.2432ZM1225.67 -42.136L1226.67 -42.0943L1226.71 -43.136H1225.67V-42.136ZM1222.31 38.336V39.336H1223.27L1223.31 38.3777L1222.31 38.336ZM1197.95 38.336L1196.95 38.3777L1196.99 39.336H1197.95V38.336ZM1194.59 -42.136V-43.136H1193.55L1193.59 -42.0943L1194.59 -42.136ZM1198.12 76.976L1197.42 77.6958L1197.44 77.7085L1197.45 77.7206L1198.12 76.976ZM1198.12 54.632L1197.44 53.9001L1197.43 53.9061L1197.42 53.9122L1198.12 54.632ZM1222.65 54.632L1221.95 55.3518L1221.96 55.3579L1221.96 55.3639L1222.65 54.632ZM1222.65 76.976L1223.33 77.7088L1223.33 77.7079L1222.65 76.976ZM1224.67 -42.1777L1221.31 38.2943L1223.31 38.3777L1226.67 -42.0943L1224.67 -42.1777ZM1222.31 37.336H1197.95V39.336H1222.31V37.336ZM1198.95 38.2943L1195.59 -42.1777L1193.59 -42.0943L1196.95 38.3777L1198.95 38.2943ZM1194.59 -41.136H1225.67V-43.136H1194.59V-41.136ZM1210.55 80.344C1205.72 80.344 1201.82 78.9536 1198.79 76.2314L1197.45 77.7206C1200.91 80.8224 1205.3 82.344 1210.55 82.344V80.344ZM1198.81 76.2561C1195.87 73.4212 1194.41 69.9853 1194.41 65.888H1192.41C1192.41 70.5267 1194.09 74.4828 1197.42 77.6958L1198.81 76.2561ZM1194.41 65.888C1194.41 61.6709 1195.88 58.1814 1198.81 55.3518L1197.42 53.9122C1194.09 57.1306 1192.41 61.1451 1192.41 65.888H1194.41ZM1198.8 55.3639C1201.84 52.5358 1205.73 51.096 1210.55 51.096V49.096C1205.29 49.096 1200.89 50.6802 1197.44 53.9001L1198.8 55.3639ZM1210.55 51.096C1215.26 51.096 1219.03 52.5316 1221.95 55.3518L1223.34 53.9122C1219.99 50.6844 1215.7 49.096 1210.55 49.096V51.096ZM1221.96 55.3639C1225.01 58.1967 1226.52 61.6826 1226.52 65.888H1228.52C1228.52 61.1334 1226.78 57.1153 1223.33 53.9001L1221.96 55.3639ZM1226.52 65.888C1226.52 69.9734 1225.01 73.4058 1221.96 76.2441L1223.33 77.7079C1226.77 74.4982 1228.52 70.5386 1228.52 65.888H1226.52ZM1221.97 76.2432C1219.04 78.9575 1215.27 80.344 1210.55 80.344V82.344C1215.69 82.344 1219.98 80.8185 1223.33 77.7088L1221.97 76.2432ZM1288.1 -42.136L1289.1 -42.0943L1289.14 -43.136H1288.1V-42.136ZM1284.74 38.336V39.336H1285.7L1285.74 38.3777L1284.74 38.336ZM1260.38 38.336L1259.38 38.3777L1259.42 39.336H1260.38V38.336ZM1257.02 -42.136V-43.136H1255.98L1256.02 -42.0943L1257.02 -42.136ZM1260.55 76.976L1259.85 77.6958L1259.87 77.7085L1259.88 77.7206L1260.55 76.976ZM1260.55 54.632L1259.87 53.9001L1259.86 53.9061L1259.85 53.9122L1260.55 54.632ZM1285.07 54.632L1284.38 55.3518L1284.39 55.3579L1284.39 55.3639L1285.07 54.632ZM1285.07 76.976L1285.76 77.7088L1285.76 77.7079L1285.07 76.976ZM1287.1 -42.1777L1283.74 38.2943L1285.74 38.3777L1289.1 -42.0943L1287.1 -42.1777ZM1284.74 37.336H1260.38V39.336H1284.74V37.336ZM1261.38 38.2943L1258.02 -42.1777L1256.02 -42.0943L1259.38 38.3777L1261.38 38.2943ZM1257.02 -41.136H1288.1V-43.136H1257.02V-41.136ZM1272.98 80.344C1268.14 80.344 1264.25 78.9536 1261.21 76.2314L1259.88 77.7206C1263.34 80.8224 1267.73 82.344 1272.98 82.344V80.344ZM1261.24 76.2561C1258.3 73.4212 1256.84 69.9853 1256.84 65.888H1254.84C1254.84 70.5267 1256.52 74.4828 1259.85 77.6958L1261.24 76.2561ZM1256.84 65.888C1256.84 61.6709 1258.31 58.1814 1261.24 55.3518L1259.85 53.9122C1256.51 57.1306 1254.84 61.1451 1254.84 65.888H1256.84ZM1261.23 55.3639C1264.27 52.5358 1268.15 51.096 1272.98 51.096V49.096C1267.72 49.096 1263.32 50.6802 1259.87 53.9001L1261.23 55.3639ZM1272.98 51.096C1277.68 51.096 1281.46 52.5316 1284.38 55.3518L1285.77 53.9122C1282.42 50.6844 1278.13 49.096 1272.98 49.096V51.096ZM1284.39 55.3639C1287.44 58.1967 1288.95 61.6826 1288.95 65.888H1290.95C1290.95 61.1334 1289.21 57.1153 1285.76 53.9001L1284.39 55.3639ZM1288.95 65.888C1288.95 69.9734 1287.44 73.4058 1284.39 76.2441L1285.76 77.7079C1289.2 74.4982 1290.95 70.5386 1290.95 65.888H1288.95ZM1284.39 76.2432C1281.47 78.9575 1277.7 80.344 1272.98 80.344V82.344C1278.12 82.344 1282.41 80.8185 1285.76 77.7088L1284.39 76.2432Z" fill="#FCD9C6" mask="url(#path-1-outside-1_527_112)"/>
</svg>
