<svg width="166" height="41" viewBox="0 0 166 41" fill="none" xmlns="http://www.w3.org/2000/svg">
<g clip-path="url(#clip0_1335_346)">
<path fill-rule="evenodd" clip-rule="evenodd" d="M17.0295 37.9563C16.9912 38.4683 15.5887 38.8798 13.8641 38.8798C12.1154 38.8798 10.6978 38.4565 10.6978 37.9347C10.6978 37.9279 10.6981 37.9212 10.6986 37.9144C9.15912 38.2138 8.14136 38.732 8.14136 39.3213C8.14136 40.2478 10.6577 40.9991 13.7617 40.9991C16.8657 40.9991 19.382 40.2478 19.382 39.3213C19.382 38.7586 18.4538 38.2604 17.0295 37.9563Z" fill="#64961A"/>
<path fill-rule="evenodd" clip-rule="evenodd" d="M24.6058 7.92848C22.7279 5.66823 19.9812 3.94098 16.8625 3.26985V2.80052C16.8625 2.05778 16.5512 1.34545 15.997 0.820254C15.4428 0.295052 14.6911 0 13.9074 0C13.1236 0 12.372 0.295052 11.8178 0.820254C11.2636 1.34545 10.9522 2.05778 10.9522 2.80052V3.31637C6.9837 4.24064 3.62069 6.90679 1.93749 10.29C1.07361 12.0033 0.65895 13.6548 0.520728 15.862L0.463135 16.6337H6.59011C6.98258 13.9529 8.83947 11.7447 11.327 10.8388V14.1677C11.327 15.6091 12.5013 16.7775 13.9499 16.7775C15.3984 16.7775 16.5727 15.6091 16.5727 14.1677V10.9163C18.9578 11.8663 20.7247 14.0265 21.1063 16.6337H27.6466L27.589 15.862C27.3817 12.6053 26.4602 10.1511 24.6058 7.92848ZM12.496 2.80052V3.05008C12.6999 3.02704 12.9049 3.00863 13.1109 2.99495C13.8578 2.94504 14.5956 2.95834 15.3188 3.02896V2.80052C15.3188 2.46558 15.1787 2.13738 14.9177 1.89005C14.6556 1.6416 14.2928 1.49621 13.9074 1.49621C13.522 1.49621 13.1592 1.6416 12.897 1.89005C12.636 2.13738 12.496 2.46558 12.496 2.80052ZM4.61983 12.2675H2.94872C2.94872 12.2675 3.09195 10.8626 5.19956 8.84686C7.30714 6.8311 9.70121 6.1592 9.70121 6.1592H9.72167C9.72167 6.1592 7.07527 8.0324 5.86801 9.78345C4.66074 11.5345 4.61983 12.2675 4.61983 12.2675ZM2.5591 14.1697H4.39404L4.61989 13.0512H2.72848L2.5591 14.1697Z" fill="#F25B0A"/>
<path fill-rule="evenodd" clip-rule="evenodd" d="M6.51944 18.4825H0L13.9389 36.3345L23.7651 23.5937L27.7072 18.4825H21.1053C20.7109 22.1434 17.5962 24.9943 13.8124 24.9943C10.0285 24.9943 6.91387 22.1434 6.51944 18.4825Z" fill="#64961A"/>
<path d="M13.9496 6.15161H13.9496C12.5011 6.15161 11.3268 7.32009 11.3268 8.76148V13.9812C11.3268 15.4226 12.5011 16.5911 13.9496 16.5911C15.3982 16.5911 16.5724 15.4226 16.5724 13.9812V8.76148C16.5724 7.32009 15.3982 6.15161 13.9496 6.15161Z" fill="#F25B0A"/>
<path d="M157.595 19.3716C157.595 22.9983 165.984 21.444 165.984 26.4523C165.984 29.014 163.756 30.5683 160.835 30.5683C158.058 30.5683 156.351 29.417 155.541 28.3808C155.339 28.1505 155.252 27.9778 155.252 27.7763C155.252 27.3734 155.57 27.028 155.975 27.028C156.265 27.028 156.438 27.1719 156.612 27.3446C157.479 28.4383 158.839 29.2155 160.835 29.2155C162.976 29.2155 164.48 28.2944 164.48 26.5962C164.48 22.6241 156.12 24.2648 156.12 19.5155C156.12 17.2129 158.087 15.8313 160.748 15.8313C162.715 15.8313 164.335 16.5797 165.203 17.5295C165.347 17.6734 165.463 17.8461 165.463 18.0764C165.463 18.4793 165.145 18.796 164.769 18.796C164.566 18.796 164.422 18.7384 164.277 18.5945C163.294 17.7022 162.252 17.1553 160.719 17.1553C158.752 17.1553 157.595 18.0188 157.595 19.3716Z" fill="#2E2E2D"/>
<path d="M150.402 10.189C150.865 10.189 151.154 10.5343 151.154 10.9373V29.6463C151.154 30.0495 150.865 30.3949 150.402 30.3949C149.939 30.3949 149.65 30.0495 149.65 29.6463V10.9373C149.65 10.5343 149.939 10.189 150.402 10.189Z" fill="#2E2E2D"/>
<path d="M137.621 30.5683C133.253 30.5683 130.476 27.3734 130.476 23.2573C130.476 19.0262 133.542 15.8313 137.939 15.8313C141.873 15.8313 144.852 18.0764 144.852 22.1348V29.6471C144.852 30.0501 144.592 30.3955 144.129 30.3955C143.637 30.3955 143.377 30.0501 143.377 29.6471V27.6324H143.232C142.828 28.4095 141.208 30.5683 137.621 30.5683ZM132.009 23.2286C132.009 26.5962 134.005 29.1867 137.679 29.1867C141.352 29.1867 143.377 26.8553 143.377 23.8042V22.1636C143.377 18.9111 141.121 17.2129 137.968 17.2129C134.265 17.2129 132.009 19.7746 132.009 23.2286Z" fill="#2E2E2D"/>
<path d="M125.79 22.0485C125.79 18.9399 123.505 17.1841 120.699 17.1841C117.777 17.1841 115.695 19.1126 115.29 22.0485H125.79ZM113.67 23.1998C113.67 18.9111 116.649 15.8313 120.699 15.8313C124.488 15.8313 127.236 18.3642 127.236 21.6167C127.236 23.0271 126.426 23.3437 125.703 23.3437H115.203C115.29 26.7689 117.546 29.1867 121.22 29.1867C122.926 29.1867 124.17 28.5822 125.009 27.8915C125.24 27.69 125.414 27.6612 125.588 27.6612C126.021 27.6612 126.253 27.9778 126.253 28.3808C126.253 28.6398 126.166 28.8413 125.877 29.0428C124.777 29.935 123.1 30.5683 121.191 30.5683C116.533 30.5683 113.67 27.4597 113.67 23.1998Z" fill="#2E2E2D"/>
<path d="M88.9576 15.7748C91.7346 15.7748 94.0197 17.6457 94.0197 21.071V28.6121C94.0197 29.6483 93.3546 30.3967 92.3132 30.3967C91.2718 30.3967 90.6067 29.6483 90.6067 28.6121V21.0134C90.6067 19.7757 89.5363 18.7683 88.1768 18.7683C86.8171 18.7683 85.718 19.7757 85.718 21.0134V28.6121C85.718 29.6483 85.0528 30.3967 84.0114 30.3967C82.9701 30.3967 82.3046 29.6483 82.3046 28.6121V21.0134C82.3046 19.7757 81.2345 18.7683 79.8751 18.7683C78.5153 18.7683 77.4162 19.7757 77.4162 21.0134V28.6121C77.4162 29.6483 76.751 30.3967 75.7096 30.3967C74.6683 30.3967 74.0028 29.6483 74.0028 28.6121V17.7897C74.0028 16.7535 74.6683 15.9763 75.7096 15.9763C76.6351 15.9763 77.2715 16.6095 77.3584 17.4442V17.473H77.503C78.0236 16.6671 79.5567 15.7748 81.003 15.7748C82.3627 15.7748 83.6643 16.3793 84.532 17.4442C85.4867 16.4656 87.0486 15.7748 88.9576 15.7748Z" fill="#2E2E2D"/>
<path d="M69.4749 16.0041C70.5159 16.0041 71.1814 16.7524 71.1814 17.7599V28.6399C71.1814 29.6474 70.5159 30.3957 69.4749 30.3957C68.4913 30.3957 67.8549 29.676 67.8258 28.7838V28.7551H67.6524C67.2475 29.4746 65.396 30.5108 63.1977 30.5108C60.3051 30.5108 57.8466 28.8702 57.8466 24.639V17.7599C57.8466 16.7524 58.5117 16.0041 59.5531 16.0041C60.5944 16.0041 61.2596 16.7524 61.2596 17.7599V24.6103C61.2596 26.9129 62.6481 27.5174 64.3259 27.5174C66.8713 27.5174 67.768 26.107 67.768 24.9557V17.7599C67.768 16.7524 68.4335 16.0041 69.4749 16.0041Z" fill="#2E2E2D"/>
<path d="M50.1952 28.5836C50.1952 29.6197 49.5297 30.3969 48.4596 30.3969C47.4182 30.3969 46.724 29.6197 46.724 28.5836V22.8557C42.9057 22.165 41.257 19.1139 41.257 15.8039V13.4149C41.257 12.3786 41.9512 11.6015 42.9926 11.6015C44.0627 11.6015 44.7281 12.3786 44.7281 13.4149V15.7751C44.7281 18.1641 46.0298 19.8623 48.4596 19.8623C50.8894 19.8623 52.191 18.1641 52.191 15.7751V13.4149C52.191 12.3786 52.8853 11.6015 53.9266 11.6015C54.9967 11.6015 55.6622 12.3786 55.6622 13.4149V15.8039C55.6622 19.0852 53.8685 22.1074 50.1952 22.8269V28.5836Z" fill="#2E2E2D"/>
<path d="M105.896 15.7287C108.499 15.7287 110.814 17.3118 110.814 20.2477V29.5448C110.814 29.9477 110.553 30.2931 110.09 30.2931C109.599 30.2931 109.338 29.9477 109.338 29.5448V20.4779C109.338 18.2329 107.747 17.1103 105.578 17.1103C103.495 17.1103 101.818 18.4919 101.818 20.2189V29.5448C101.818 29.9477 101.528 30.2931 101.066 30.2931C100.603 30.2931 100.314 29.9477 100.314 29.5448V20.2189C100.314 18.4919 98.6357 17.1103 96.5821 17.1103C94.4994 17.1103 92.8216 18.4631 92.8216 20.2189L92.7638 29.0934C92.7638 29.4964 92.5032 29.5731 92.0405 29.5731C91.5778 29.5731 91.3175 29.4964 91.3175 29.0934V17.5996C91.3175 17.1966 91.5778 17.1679 92.0405 17.1679C92.5032 17.1679 92.7925 17.1966 92.8216 17.5996H92.9372C93.2556 17.0815 94.8752 15.7287 96.958 15.7287C98.5201 15.7287 100.4 16.5058 101.297 18.0889C102.049 16.7649 103.64 15.7287 105.896 15.7287Z" fill="#2E2E2D"/>
</g>
<defs>
<clipPath id="clip0_1335_346">
<rect width="166" height="41" fill="white"/>
</clipPath>
</defs>
</svg>
