<svg width="940" height="152" viewBox="0 0 940 152" fill="none" xmlns="http://www.w3.org/2000/svg">
<path d="M73.288 132.404C73.288 142.368 66.292 150 56.328 150C46.364 150 39.368 142.368 39.368 132.404V96.576C10.748 90.004 0.36 66.26 0.36 42.092V28.312C0.36 18.348 7.356 10.716 17.32 10.716C27.284 10.716 34.28 18.348 34.28 28.312V45.06C34.28 58.204 41.276 68.168 56.328 68.168C71.38 68.168 78.588 58.204 78.588 45.06V28.312C78.588 18.348 85.584 10.716 95.548 10.716C105.512 10.716 112.508 18.348 112.508 28.312V42.092C112.508 66.26 101.484 90.004 73.288 96.576V132.404ZM206.687 43.576C216.651 43.576 223.435 50.784 223.435 60.748V133.252C223.435 143.216 216.651 150 207.323 150C198.631 150 193.543 144.276 192.483 138.34V138.128H191.211C187.819 144.064 175.311 151.06 159.411 151.06C135.879 151.06 119.131 136.644 119.131 106.752V60.748C119.131 50.784 126.127 43.576 135.879 43.576C145.631 43.576 152.415 50.784 152.415 60.748V105.904C152.415 118.2 159.835 122.864 170.435 122.864C184.003 122.864 190.151 115.232 190.151 107.388V60.748C190.151 50.784 196.935 43.576 206.687 43.576ZM350.933 41.88C374.253 41.88 389.941 58.204 389.941 84.28V132.828C389.941 142.792 383.157 150 373.405 150C363.653 150 356.657 142.792 356.657 132.828V83.008C356.657 75.8 350.933 70.076 343.089 70.076C334.821 70.076 329.097 75.8 329.097 83.008V132.828C329.097 142.792 322.313 150 312.561 150C302.809 150 295.813 142.792 295.813 132.828V83.008C295.813 75.8 290.089 70.076 282.245 70.076C273.977 70.076 268.253 76.012 268.253 83.008V132.828C268.253 142.792 261.469 150 251.717 150C241.965 150 234.969 142.792 234.969 132.828V61.172C234.969 51.208 241.541 43.364 251.717 43.364C259.349 43.364 264.649 48.028 266.133 54.176V54.388H267.193C271.433 48.452 282.881 41.88 294.329 41.88C304.293 41.88 313.197 46.12 319.133 53.752C325.705 46.756 337.789 41.88 350.933 41.88ZM517.287 41.88C540.607 41.88 556.295 58.204 556.295 84.28V132.828C556.295 142.792 549.511 150 539.759 150C530.007 150 523.011 142.792 523.011 132.828V83.008C523.011 75.8 517.287 70.076 509.443 70.076C501.175 70.076 495.451 75.8 495.451 83.008V132.828C495.451 142.792 488.667 150 478.915 150C469.163 150 462.167 142.792 462.167 132.828V83.008C462.167 75.8 456.443 70.076 448.599 70.076C440.331 70.076 434.607 76.012 434.607 83.008V132.828C434.607 142.792 427.823 150 418.071 150C408.319 150 401.323 142.792 401.323 132.828V61.172C401.323 51.208 407.895 43.364 418.071 43.364C425.703 43.364 431.003 48.028 432.487 54.176V54.388H433.547C437.787 48.452 449.235 41.88 460.683 41.88C470.647 41.88 479.551 46.12 485.487 53.752C492.059 46.756 504.143 41.88 517.287 41.88ZM642.301 85.34C641.665 76.224 634.457 66.472 621.101 66.472C609.865 66.472 601.809 74.104 598.841 85.34H642.301ZM564.709 96.576C564.709 64.352 590.997 41.88 621.525 41.88C650.145 41.88 673.889 60.536 673.889 85.976C673.889 99.968 664.137 106.752 655.021 106.752H598.841C602.233 118.624 611.773 124.772 625.341 124.772C633.609 124.772 640.605 122.44 646.117 119.896C649.297 117.988 651.841 117.564 653.961 117.564C663.289 117.564 666.893 125.408 666.893 130.708C666.893 135.372 664.349 139.4 659.049 142.792C650.569 147.88 637.849 151.696 623.221 151.696C588.029 151.696 564.709 128.376 564.709 96.576ZM728.706 151.696C701.57 151.696 679.098 130.496 679.098 98.06C679.098 63.292 705.174 41.88 738.034 41.88C768.986 41.88 793.578 59.688 793.578 89.368V132.828C793.578 142.792 787.218 150 777.042 150C768.35 150 762.202 144.488 762.202 136.644V136.22H760.506C756.266 143.64 745.454 151.696 728.706 151.696ZM712.594 97.212C712.594 114.172 721.498 123.712 736.338 123.712C749.482 123.712 760.506 116.292 760.506 101.664V92.124C760.506 77.072 750.754 70.288 737.398 70.288C720.438 70.288 712.594 81.736 712.594 97.212ZM821.903 0.115996C831.655 0.115996 838.651 7.53599 838.651 17.5V132.828C838.651 142.792 831.655 150 821.903 150C812.151 150 805.367 142.792 805.367 132.828V17.5C805.367 7.53599 812.151 0.115996 821.903 0.115996ZM884.73 71.984C884.73 87.248 939.85 79.828 939.85 116.928C939.85 137.704 922.254 151.696 894.482 151.696C874.13 151.696 858.442 144.064 852.718 138.552C849.538 135.584 847.418 131.98 847.418 127.74C847.418 120.532 853.566 114.596 860.35 114.596C863.742 114.596 866.286 115.656 868.406 117.352C875.614 122.864 884.73 127.316 894.694 127.316C904.022 127.316 908.05 123.5 908.05 119.472C908.05 105.48 853.566 111.628 853.566 74.528C853.566 50.996 875.614 41.88 894.906 41.88C908.686 41.88 922.678 45.908 930.734 52.692C933.702 54.812 936.246 57.992 936.246 62.868C936.246 69.864 930.522 75.588 923.526 75.588C920.77 75.588 918.65 74.74 916.742 73.468C908.262 67.532 901.902 65.624 895.542 65.624C887.91 65.624 884.73 68.38 884.73 71.984Z" fill="#F25B0A"/>
</svg>
